<svg width="50" height="50" viewBox="0 0 50 50" fill="none" xmlns="http://www.w3.org/2000/svg">
<g clip-path="url(#clip0_6_17)">
<path d="M37.4766 12.7801C39.8537 7.19171 39.1844 1.59232 35.9818 0.273532C32.7791 -1.04526 28.2559 2.41595 25.8788 8.00435C23.5018 13.5928 24.171 19.1921 27.3737 20.5109C30.5763 21.8297 35.0995 18.3685 37.4766 12.7801Z" fill="#FFC1CD"/>
<path d="M20.9175 20.8808C23.6251 18.7427 22.6958 13.1794 18.8419 8.45476C14.988 3.73016 9.66888 1.6334 6.96127 3.77153C4.25367 5.90965 5.18292 11.473 9.03681 16.1976C12.8907 20.9222 18.2098 23.0189 20.9175 20.8808Z" fill="#FFC1CD"/>
<path d="M29.479 49.8912C32.8489 49.0695 34.3799 43.6365 32.8987 37.7563C31.4175 31.8762 27.485 27.7755 24.1151 28.5973C20.7453 29.419 19.2142 34.852 20.6954 40.7322C22.1766 46.6124 26.1092 50.713 29.479 49.8912Z" fill="#FFC1CD"/>
<path d="M49.7688 31.7067C50.9767 28.5041 47.2764 24.1993 41.504 22.0916C35.7315 19.9839 30.0728 20.8714 28.8649 24.074C27.657 27.2765 31.3573 31.5813 37.1298 33.689C42.9022 35.7967 48.5609 34.9092 49.7688 31.7067Z" fill="#FFC1CD"/>
<path d="M13.2076 36.6314C18.6725 33.8407 21.8061 29.1205 20.2068 26.0886C18.6075 23.0566 12.8808 22.8611 7.41585 25.6519C1.95094 28.4426 -1.18273 33.1628 0.41661 36.1947C2.01595 39.2266 7.74265 39.4221 13.2076 36.6314Z" fill="#FFC1CD"/>
<path d="M24.0836 31.4219C28.0888 31.4219 31.3357 28.2272 31.3357 24.2864C31.3357 20.3456 28.0888 17.151 24.0836 17.151C20.0784 17.151 16.8315 20.3456 16.8315 24.2864C16.8315 28.2272 20.0784 31.4219 24.0836 31.4219Z" fill="#FFFFCD"/>
</g>
<defs>
<clipPath id="clip0_6_17">
<rect width="50" height="50" fill="white"/>
</clipPath>
</defs>
</svg>
