<svg width="184" height="23" viewBox="0 0 184 23" fill="none" xmlns="http://www.w3.org/2000/svg">
<path fill-rule="evenodd" clip-rule="evenodd" d="M124.239 5.75C124.239 2.57436 103.996 0 79.0256 0C54.0548 0 33.812 2.57436 33.812 5.75V5.75146C15.067 5.82093 0 8.36804 0 11.5C0 14.6756 15.4902 17.25 34.5983 17.25C37.8813 17.25 41.0575 17.174 44.0666 17.032C44.0451 17.1044 44.0342 17.177 44.0342 17.25C44.0342 20.4256 64.6291 23 90.0342 23C102.07 23 113.026 22.4222 121.224 21.4764C127.391 22.4222 135.631 23 144.684 23C163.792 23 179.282 20.4256 179.282 17.25C179.282 16.2604 177.778 15.3292 175.129 14.5161C180.754 13.6393 184 12.6061 184 11.5C184 8.32436 157.244 5.75 124.239 5.75Z" fill="#F8EFEF"/>
</svg>
