<svg width="184" height="32" viewBox="0 0 184 32" fill="none" xmlns="http://www.w3.org/2000/svg">
<path fill-rule="evenodd" clip-rule="evenodd" d="M124.239 8C124.239 3.58172 103.996 0 79.0256 0C54.0548 0 33.812 3.58172 33.812 8V8.00203C15.067 8.09868 0 11.6425 0 16C0 20.4183 15.4902 24 34.5983 24C37.8813 24 41.0575 23.8943 44.0666 23.6967C44.0451 23.7974 44.0342 23.8985 44.0342 24C44.0342 28.4183 64.6291 32 90.0342 32C102.07 32 113.026 31.1961 121.224 29.8802C127.391 31.1961 135.631 32 144.684 32C163.792 32 179.282 28.4183 179.282 24C179.282 22.6232 177.778 21.3276 175.129 20.1963C180.754 18.9763 184 17.5389 184 16C184 11.5817 157.244 8 124.239 8Z" fill="#F8EFEF"/>
</svg>
