<svg width="120" height="116" viewBox="0 0 120 116" fill="none" xmlns="http://www.w3.org/2000/svg">
<g clip-path="url(#clip0_19_2)">
<path d="M37.9088 11.5252C39.5643 12.737 40.6918 14.5316 41.0608 16.5422C41.7349 20.3517 40.4535 24.2457 41.0061 28.013C41.2977 29.9811 44.8687 37.8718 47.4377 35.5294C49.6179 33.5491 51.7496 31.3938 54.4704 30.2528C56.1162 29.5645 57.92 29.2687 59.499 28.4416C61.078 27.6145 61.6307 25.7067 61.3756 23.9499C57.1325 19.2046 52.8812 14.4613 48.6219 9.72005C47.1915 7.97585 45.5377 6.42519 43.7026 5.10757C41.662 3.77938 39.2935 3.04888 36.9614 2.34252C33.5665 1.30411 30.123 0.25965 26.5763 0.163054C23.7235 0.141512 20.8987 0.722369 18.2886 1.86721C15.6786 3.01204 13.3428 4.69477 11.4358 6.80404C9.57135 8.84464 8.73326 11.3078 7.18459 13.4873C5.5084 15.8599 2.93337 17.4357 1.50617 20.0257C0.0789766 22.6156 0.29153 26.7814 3.13985 27.9526C1.53046 28.0733 0.364415 29.6732 0.176146 31.261C-0.0121227 32.8488 0.540531 34.4245 1.08104 35.9338C2.35034 39.4656 3.65 43.0578 5.891 46.0764C7.29729 44.8781 8.31399 43.2917 8.81221 41.5183C11.8852 43.9332 15.6628 45.7444 19.58 45.5452C23.4972 45.3459 27.4751 42.8284 28.3618 39.043C28.1525 40.9653 27.498 42.8132 26.4497 44.4418C25.4014 46.0704 23.9878 47.4354 22.3197 48.4297C20.6517 49.424 18.7745 50.0207 16.8356 50.1728C14.8966 50.3249 12.9486 50.0283 11.1443 49.3064C11.6505 49.2982 12.1483 49.1767 12.6008 48.951C13.0533 48.7254 13.4488 48.4013 13.7581 48.0028C14.0673 47.6044 14.2822 47.1418 14.387 46.6494C14.4917 46.1571 14.4836 45.6476 14.3631 45.1588L11.035 44.7422C11.035 44.7422 9.44989 47.4167 9.32236 47.6582C8.49033 49.2943 7.96196 48.7932 8.71504 50.4414C11.0775 55.7964 17.7094 54.3233 22.1307 52.9106C24.8515 52.0413 27.4083 50.7855 30.0926 49.8316C33.1292 48.7509 36.2812 49.6565 39.087 47.7367C42.5791 45.3218 46.6846 43.6072 49.8123 40.7516C50.9378 39.8395 51.8201 38.6659 52.3812 37.3345C52.8853 35.9037 52.7213 34.3159 52.5452 32.8307" fill="#F2DAB7"/>
<path d="M37.9088 11.5252C39.5643 12.737 40.6918 14.5316 41.0608 16.5422C41.7349 20.3517 40.4535 24.2457 41.0061 28.013C41.2977 29.9811 44.8687 37.8718 47.4377 35.5294C49.6179 33.5491 51.7496 31.3938 54.4704 30.2528C56.1162 29.5645 57.92 29.2687 59.499 28.4416C61.078 27.6145 61.6307 25.7067 61.3756 23.9499C57.1325 19.2046 52.8812 14.4613 48.6219 9.72005C47.1915 7.97585 45.5377 6.42519 43.7026 5.10757C41.662 3.77938 39.2935 3.04888 36.9614 2.34252C33.5665 1.30411 30.123 0.25965 26.5763 0.163054C23.7235 0.141512 20.8987 0.722369 18.2886 1.86721C15.6786 3.01204 13.3428 4.69477 11.4358 6.80404C9.57135 8.84464 8.73326 11.3078 7.18459 13.4873C5.5084 15.8599 2.93337 17.4357 1.50617 20.0257C0.0789766 22.6156 0.29153 26.7814 3.13985 27.9526C1.53046 28.0733 0.364415 29.6732 0.176146 31.261C-0.0121227 32.8488 0.540531 34.4245 1.08104 35.9338C2.35034 39.4656 3.65 43.0578 5.891 46.0764C7.29729 44.8781 8.31399 43.2917 8.81221 41.5183C11.8852 43.9332 15.6628 45.7444 19.58 45.5452C23.4972 45.3459 27.4751 42.8284 28.3618 39.043C28.1525 40.9653 27.498 42.8132 26.4497 44.4418C25.4014 46.0704 23.9878 47.4354 22.3197 48.4297C20.6517 49.424 18.7745 50.0207 16.8356 50.1728C14.8966 50.3249 12.9486 50.0283 11.1443 49.3064C11.6505 49.2982 12.1483 49.1767 12.6008 48.951C13.0533 48.7254 13.4488 48.4013 13.7581 48.0028C14.0673 47.6044 14.2822 47.1418 14.387 46.6494C14.4917 46.1571 14.4836 45.6476 14.3631 45.1588L11.035 44.7422C11.035 44.7422 9.44989 47.4167 9.32236 47.6582C8.49033 49.2943 7.96196 48.7932 8.71504 50.4414C11.0775 55.7964 17.7094 54.3233 22.1307 52.9106C24.8515 52.0413 27.4083 50.7855 30.0926 49.8316C33.1292 48.7509 36.2812 49.6565 39.087 47.7367C42.5791 45.3218 46.6846 43.6072 49.8123 40.7516C50.9378 39.8395 51.8201 38.6659 52.3812 37.3345C52.8853 35.9037 52.7213 34.3159 52.5452 32.8307" stroke="#231F20" stroke-width="0.5" stroke-miterlimit="10"/>
<path d="M51.0269 40.7999C51.9804 45.2373 56.1101 48.4551 60.5071 49.6928C64.9041 50.9304 69.5622 50.5742 74.1171 50.2301C83.9253 49.4935 93.8307 48.8838 103.554 50.3629C104.613 50.5894 105.7 50.6545 106.779 50.5561C114.309 49.4271 113.544 38.0469 117.753 33.6518C117.861 33.4995 118.005 33.3758 118.172 33.2916C118.34 33.2074 118.525 33.1653 118.713 33.1688C119.113 33.2412 119.32 33.6699 119.453 34.0563C120.012 35.8674 119.848 37.7873 119.563 39.6468C119.006 43.2135 118.023 46.7016 116.635 50.0369C115.506 52.7356 112.494 56.0742 112.19 58.8996C111.886 61.725 113.611 65.3655 114.127 68.0944C114.8 71.4685 115.228 74.8863 115.409 78.3215C115.561 81.6963 114.85 84.564 116.192 88.0294C116.836 89.6836 117.783 89.4965 119.004 90.9394C119.866 91.9597 119.872 93.4267 119.83 94.767C119.672 100.144 119.51 105.521 119.344 110.899C119.314 111.877 119.259 112.933 118.64 113.694C117.874 114.642 116.508 114.823 115.287 114.901C112.12 115.1 108.944 115.1 105.777 114.901C105.576 114.942 105.369 114.927 105.177 114.857C104.985 114.787 104.816 114.665 104.69 114.505C104.564 114.345 104.485 114.154 104.462 113.952C104.44 113.75 104.474 113.545 104.562 113.362C104.981 110.911 105.941 107.928 108.418 107.59C108.916 107.611 109.411 107.5 109.852 107.27C110.034 107.087 110.176 106.869 110.27 106.629C110.364 106.389 110.408 106.133 110.398 105.876C110.696 102.573 110.653 99.1742 109.615 96.0167C108.576 92.8592 105.874 89.4361 102.837 88.0536C98.2708 92.2386 94.9955 97.6282 93.3934 103.593C93.1451 104.606 92.7739 105.586 92.2881 106.509C89.5734 107.337 80.5669 110.609 78.1254 107.977C75.684 105.344 80.4758 101.299 82.6925 100.539C84.3808 99.9349 86.4093 99.8866 87.551 98.5403C88.0095 97.9428 88.3458 97.2619 88.5409 96.5359C89.2352 94.4685 89.8131 92.3643 90.2718 90.233C90.717 88.5963 90.808 86.8843 90.539 85.21C89.6159 81.0383 86.1056 77.5849 81.8847 78.8648C77.9189 80.0723 72.447 82.9219 70.7769 86.9427C68.046 93.5298 66.431 100.521 65.9973 107.632C65.8637 109.824 65.6025 112.776 63.732 113.953C58.7338 117.093 53.5533 115.499 48.1907 115.197C48.1178 114.696 48.1907 114.219 48.1603 113.718C47.4437 106.419 55.8308 107.614 57.677 102.507C59.2251 98.1951 59.3717 93.509 58.0961 89.1101C57.5981 87.4197 56.4259 84.6123 54.9198 85.536C50.9358 87.9509 48.4336 92.2857 47.0672 96.7351C46.2655 99.3613 45.889 110.893 43.1925 111.17C38.2432 111.569 33.2682 111.532 28.3253 111.062C29.3213 108.013 30.5967 104.632 33.524 103.286C39.6579 100.46 38.7165 90.4322 39.1781 84.4976C39.3239 82.5898 39.4332 80.5915 38.6315 78.8528C37.1314 75.6289 32.9835 74.3248 31.3437 71.1673C29.7039 68.0098 31.1615 64.0977 32.4247 60.7047C33.6879 57.3118 34.5503 53.0676 32.0603 50.4414C38.5708 47.9118 45.7432 45.3278 51.0269 40.7999Z" fill="#F2DAB7" stroke="#231F20" stroke-width="0.5" stroke-miterlimit="10"/>
<path d="M54.3671 45.2915C49.9804 47.9878 45.3655 50.2987 40.5749 52.1981C39.1356 52.7656 35.7164 54.7579 34.186 54.0455C32.6555 53.3331 32.6251 50.8035 31.9207 49.5538C35.5646 49.5055 38.668 47.477 41.8807 45.7745C45.0934 44.072 47.717 41.5484 50.8325 39.8942C51.3063 39.6406 54.4157 44.6515 54.6101 45.1708L54.3671 45.2915Z" fill="#BE1E2D" stroke="#231F20" stroke-width="0.5" stroke-miterlimit="10"/>
<path d="M33.2082 56.1587C33.8253 56.1587 34.3256 54.8558 34.3256 53.2487C34.3256 51.6416 33.8253 50.3387 33.2082 50.3387C32.591 50.3387 32.0907 51.6416 32.0907 53.2487C32.0907 54.8558 32.591 56.1587 33.2082 56.1587Z" fill="#FFE55E" stroke="#231F20" stroke-width="0.5" stroke-miterlimit="10"/>
<path d="M6.06707 35.2576C6.24129 35.5219 6.4878 35.7314 6.77763 35.8613C7.18772 35.9554 7.61808 35.9019 7.99227 35.7104C10.7448 34.6558 13.3098 33.1699 15.5898 31.3092C16.1971 30.8322 16.8045 30.1017 16.4947 29.4256C16.2579 28.8701 15.5655 28.7011 14.9704 28.5985C10.4215 27.8015 0.704448 28.4415 6.06707 35.2576Z" fill="#231F20" stroke="#231F20" stroke-width="0.5" stroke-miterlimit="10"/>
<path d="M3.08521 27.7835L9.32237 27.0046" stroke="#231F20" stroke-width="0.5" stroke-miterlimit="10"/>
<path d="M10.3001 14.7008C9.44785 18.9525 9.09325 23.2879 9.24334 27.6205" stroke="#231F20" stroke-width="0.5" stroke-miterlimit="10"/>
<path d="M18.6871 23.5091C18.3991 22.2033 17.6599 21.039 16.598 20.2188C16.062 19.822 15.4177 19.5959 14.75 19.57C14.0823 19.5441 13.4223 19.7198 12.8569 20.0739C12.4878 20.3515 12.1868 20.7086 11.9763 21.1183C11.7314 21.5878 11.5968 22.1065 11.5828 22.6352C11.5687 23.1639 11.6755 23.6888 11.8952 24.1705C12.1148 24.6522 12.4415 25.0781 12.8507 25.4161C13.2599 25.7541 13.741 25.9954 14.2576 26.1218C14.7742 26.2482 15.3129 26.2564 15.8332 26.1458C16.3534 26.0352 16.8417 25.8087 17.2611 25.4833C17.6805 25.158 18.0202 24.7423 18.2546 24.2675C18.489 23.7927 18.612 23.2712 18.6143 22.7424" fill="white"/>
<path d="M18.6871 23.5091C18.3991 22.2033 17.6599 21.039 16.598 20.2188C16.062 19.822 15.4177 19.5959 14.75 19.57C14.0823 19.5441 13.4223 19.7198 12.8569 20.0739C12.4878 20.3515 12.1868 20.7086 11.9763 21.1183C11.7314 21.5878 11.5968 22.1065 11.5828 22.6352C11.5687 23.1639 11.6755 23.6888 11.8952 24.1705C12.1148 24.6522 12.4415 25.0781 12.8507 25.4161C13.2599 25.7541 13.741 25.9954 14.2576 26.1218C14.7742 26.2482 15.3129 26.2564 15.8332 26.1458C16.3534 26.0352 16.8417 25.8087 17.2611 25.4833C17.6805 25.158 18.0202 24.7423 18.2546 24.2675C18.489 23.7927 18.612 23.2712 18.6143 22.7424" stroke="#231F20" stroke-width="0.5" stroke-miterlimit="10"/>
<path d="M29.3153 19.1381C30.2256 18.8284 31.2026 18.7659 32.1454 18.957C33.1174 19.2152 33.9803 19.777 34.6069 20.5596C35.2334 21.3422 35.5904 22.3042 35.6253 23.3038C35.6236 24.3042 35.3339 25.2832 34.7905 26.1251C34.247 26.9671 33.4725 27.6368 32.5584 28.0551C31.6338 28.4487 30.6254 28.6078 29.6236 28.5183C28.6219 28.4287 27.6583 28.0932 26.8192 27.542C22.7684 24.8795 25.5135 20.3455 29.3153 19.1381Z" fill="white" stroke="#231F20" stroke-width="0.5" stroke-miterlimit="10"/>
<path d="M16.9077 14.5558C16.1641 14.3918 15.3873 14.4672 14.6897 14.771C13.992 15.0749 13.4097 15.5916 13.027 16.2462L16.6709 15.3648C16.7672 15.3558 16.8604 15.3264 16.9442 15.2785C17.0281 15.2306 17.1005 15.1653 17.1567 15.0871C17.2418 14.912 17.0414 14.6524 16.8834 14.7611" fill="#231F20"/>
<path d="M16.9077 14.5558C16.1641 14.3918 15.3873 14.4672 14.6897 14.771C13.992 15.0749 13.4097 15.5916 13.027 16.2462L16.6709 15.3648C16.7672 15.3558 16.8604 15.3264 16.9442 15.2785C17.0281 15.2306 17.1005 15.1653 17.1567 15.0871C17.2418 14.912 17.0414 14.6524 16.8834 14.7611" stroke="#231F20" stroke-width="0.5" stroke-miterlimit="10"/>
<path d="M27.2079 14.3566C29.0955 13.4931 31.2466 13.3914 33.2082 14.0728C33.8519 14.3022 34.5747 14.9845 34.1617 15.5278C32.947 15.4976 31.86 14.749 30.7182 14.2902C29.5764 13.8313 28.0399 13.7649 27.3354 14.7671" fill="#231F20"/>
<path d="M27.2079 14.3566C29.0955 13.4931 31.2466 13.3914 33.2082 14.0728C33.8519 14.3022 34.5747 14.9845 34.1617 15.5278C32.947 15.4976 31.86 14.749 30.7182 14.2902C29.5764 13.8313 28.0399 13.7649 27.3354 14.7671" stroke="#231F20" stroke-width="0.5" stroke-miterlimit="10"/>
<path d="M15.766 25.4048C17.0506 25.4048 18.092 24.3696 18.092 23.0925C18.092 21.8155 17.0506 20.7803 15.766 20.7803C14.4813 20.7803 13.4399 21.8155 13.4399 23.0925C13.4399 24.3696 14.4813 25.4048 15.766 25.4048Z" fill="#231F20" stroke="#231F20" stroke-width="0.5" stroke-miterlimit="10"/>
<path d="M32.0421 27.4273C33.8936 27.4273 35.3945 25.9353 35.3945 24.0948C35.3945 22.2542 33.8936 20.7622 32.0421 20.7622C30.1906 20.7622 28.6897 22.2542 28.6897 24.0948C28.6897 25.9353 30.1906 27.4273 32.0421 27.4273Z" fill="#231F20" stroke="#231F20" stroke-width="0.5" stroke-miterlimit="10"/>
<path d="M23.4303 36.4108V36.6643" stroke="#231F20" stroke-width="0.5" stroke-miterlimit="10"/>
<path d="M20.9585 36.278L21.2196 36.5376" stroke="#231F20" stroke-width="0.5" stroke-miterlimit="10"/>
<path d="M18.6871 35.6379V36.1571" stroke="#231F20" stroke-width="0.5" stroke-miterlimit="10"/>
<path d="M20.8311 34.4185H21.0922" stroke="#231F20" stroke-width="0.5" stroke-miterlimit="10"/>
<path d="M4.34839 35.7648L4.60953 36.0244" stroke="#231F20" stroke-width="0.5" stroke-miterlimit="10"/>
<path d="M2.58105 36.1511L2.84221 36.4107" stroke="#231F20" stroke-width="0.5" stroke-miterlimit="10"/>
<path d="M23.6915 34.4185H23.4303" stroke="#231F20" stroke-width="0.5" stroke-miterlimit="10"/>
<path d="M4.14197 38.4755L4.39704 38.7351" stroke="#231F20" stroke-width="0.5" stroke-miterlimit="10"/>
</g>
<defs>
<clipPath id="clip0_19_2">
<rect width="120" height="116" fill="white"/>
</clipPath>
</defs>
</svg>
