<svg width="99" height="44" viewBox="0 0 99 44" fill="none" xmlns="http://www.w3.org/2000/svg">
<g clip-path="url(#clip0_34_288)">
<path d="M79.243 9.83401C79.9561 8.15749 79.7553 6.47767 78.7945 6.08203C77.8337 5.6864 76.4767 6.72476 75.7636 8.40128C75.0505 10.0778 75.2513 11.7576 76.2121 12.1533C77.1729 12.5489 78.5298 11.5105 79.243 9.83401Z" fill="#FFC1CD"/>
<path d="M74.2753 12.2642C75.0876 11.6228 74.8088 9.95377 73.6526 8.53639C72.4965 7.11901 70.9007 6.48998 70.0884 7.13142C69.2762 7.77286 69.5549 9.44186 70.7111 10.8592C71.8673 12.2766 73.463 12.9056 74.2753 12.2642Z" fill="#FFC1CD"/>
<path d="M76.8437 20.9673C77.8547 20.7208 78.314 19.0909 77.8696 17.3268C77.4253 15.5628 76.2455 14.3326 75.2345 14.5791C74.2236 14.8257 73.7643 16.4556 74.2086 18.2196C74.653 19.9837 75.8328 21.2139 76.8437 20.9673Z" fill="#FFC1CD"/>
<path d="M82.9306 15.512C83.293 14.5512 82.1829 13.2598 80.4511 12.6275C78.7194 11.9952 77.0218 12.2614 76.6594 13.2222C76.2971 14.1829 77.4071 15.4744 79.1389 16.1067C80.8706 16.739 82.5682 16.4728 82.9306 15.512Z" fill="#FFC1CD"/>
<path d="M71.9623 16.9895C73.6017 16.1523 74.5418 14.7362 74.062 13.8266C73.5822 12.9171 71.8642 12.8584 70.2248 13.6956C68.5853 14.5328 67.6452 15.9489 68.125 16.8585C68.6048 17.7681 70.3228 17.8267 71.9623 16.9895Z" fill="#FFC1CD"/>
<path d="M75.2251 15.4265C76.4266 15.4265 77.4007 14.4681 77.4007 13.2859C77.4007 12.1037 76.4266 11.1453 75.2251 11.1453C74.0235 11.1453 73.0494 12.1037 73.0494 13.2859C73.0494 14.4681 74.0235 15.4265 75.2251 15.4265Z" fill="#FFFFCD"/>
</g>
<g clip-path="url(#clip1_34_288)">
<path d="M11.243 11.834C11.9561 10.1575 11.7553 8.47767 10.7945 8.08203C9.83372 7.6864 8.47675 8.72476 7.76363 10.4013C7.05051 12.0778 7.25129 13.7576 8.21208 14.1533C9.17287 14.5489 10.5298 13.5105 11.243 11.834Z" fill="#FFC1CD"/>
<path d="M6.27523 14.2642C7.08752 13.6228 6.80874 11.9538 5.65257 10.5364C4.49641 9.11901 2.90066 8.48998 2.08838 9.13142C1.2761 9.77286 1.55487 11.4419 2.71104 12.8592C3.86721 14.2766 5.46295 14.9056 6.27523 14.2642Z" fill="#FFC1CD"/>
<path d="M8.84372 22.9673C9.85468 22.7208 10.314 21.0909 9.86963 19.3268C9.42527 17.5628 8.2455 16.3326 7.23455 16.5791C6.22359 16.8257 5.76428 18.4556 6.20864 20.2196C6.653 21.9837 7.83277 23.2139 8.84372 22.9673Z" fill="#FFC1CD"/>
<path d="M14.9307 17.512C15.293 16.5512 14.1829 15.2598 12.4512 14.6275C10.7195 13.9952 9.02186 14.2614 8.65949 15.2222C8.29712 16.1829 9.40721 17.4744 11.1389 18.1067C12.8707 18.739 14.5683 18.4728 14.9307 17.512Z" fill="#FFC1CD"/>
<path d="M3.96227 18.9895C5.60174 18.1523 6.54184 16.7362 6.06204 15.8266C5.58224 14.9171 3.86423 14.8584 2.22475 15.6956C0.585281 16.5328 -0.354818 17.9489 0.124983 18.8585C0.604784 19.7681 2.3228 19.8267 3.96227 18.9895Z" fill="#FFC1CD"/>
<path d="M7.22507 17.4265C8.42664 17.4265 9.4007 16.4681 9.4007 15.2859C9.4007 14.1037 8.42664 13.1453 7.22507 13.1453C6.0235 13.1453 5.04944 14.1037 5.04944 15.2859C5.04944 16.4681 6.0235 17.4265 7.22507 17.4265Z" fill="#FFFFCD"/>
</g>
<g clip-path="url(#clip2_34_288)">
<path d="M64.4953 2.55605C64.9707 1.43837 64.8369 0.318488 64.1963 0.0547305C63.5558 -0.209027 62.6512 0.483215 62.1758 1.6009C61.7003 2.71858 61.8342 3.83845 62.4747 4.10221C63.1152 4.36597 64.0199 3.67373 64.4953 2.55605Z" fill="#FFC1CD"/>
<path d="M61.1835 4.17614C61.725 3.74851 61.5392 2.63585 60.7684 1.69093C59.9976 0.746007 58.9338 0.326655 58.3923 0.754281C57.8507 1.18191 58.0366 2.29457 58.8074 3.23949C59.5781 4.18441 60.642 4.60377 61.1835 4.17614Z" fill="#FFC1CD"/>
<path d="M62.8958 9.9783C63.5697 9.81395 63.876 8.72735 63.5797 7.55131C63.2835 6.37528 62.497 5.55515 61.823 5.7195C61.149 5.88386 60.8428 6.97045 61.1391 8.14649C61.4353 9.32252 62.2218 10.1427 62.8958 9.9783Z" fill="#FFC1CD"/>
<path d="M66.9538 6.34128C67.1954 5.70078 66.4553 4.83981 65.3008 4.41827C64.1463 3.99673 63.0146 4.17423 62.773 4.81474C62.5314 5.45525 63.2715 6.31622 64.426 6.73776C65.5805 7.1593 66.7122 6.98179 66.9538 6.34128Z" fill="#FFC1CD"/>
<path d="M59.6415 7.32628C60.7345 6.76813 61.3612 5.82409 61.0414 5.21771C60.7215 4.61133 59.5762 4.57223 58.4832 5.13037C57.3902 5.68852 56.7635 6.63256 57.0833 7.23894C57.4032 7.84533 58.5485 7.88443 59.6415 7.32628Z" fill="#FFC1CD"/>
<path d="M61.8168 6.28435C62.6178 6.28435 63.2672 5.64542 63.2672 4.85726C63.2672 4.0691 62.6178 3.43018 61.8168 3.43018C61.0157 3.43018 60.3663 4.0691 60.3663 4.85726C60.3663 5.64542 61.0157 6.28435 61.8168 6.28435Z" fill="#FFFFCD"/>
</g>
<g clip-path="url(#clip3_34_288)">
<path d="M96.4953 13.556C96.9707 12.4384 96.8369 11.3185 96.1963 11.0547C95.5558 10.791 94.6512 11.4832 94.1758 12.6009C93.7003 13.7186 93.8342 14.8385 94.4747 15.1022C95.1152 15.366 96.0199 14.6737 96.4953 13.556Z" fill="#FFC1CD"/>
<path d="M93.1835 15.1761C93.725 14.7485 93.5392 13.6358 92.7684 12.6909C91.9976 11.746 90.9338 11.3267 90.3923 11.7543C89.8507 12.1819 90.0366 13.2946 90.8074 14.2395C91.5781 15.1844 92.642 15.6038 93.1835 15.1761Z" fill="#FFC1CD"/>
<path d="M94.8958 20.9783C95.5697 20.8139 95.876 19.7273 95.5797 18.5513C95.2835 17.3753 94.497 16.5551 93.823 16.7195C93.149 16.8839 92.8428 17.9705 93.1391 19.1465C93.4353 20.3225 94.2218 21.1427 94.8958 20.9783Z" fill="#FFC1CD"/>
<path d="M98.9538 17.3413C99.1954 16.7008 98.4553 15.8398 97.3008 15.4183C96.1463 14.9967 95.0146 15.1742 94.773 15.8147C94.5314 16.4553 95.2715 17.3162 96.426 17.7378C97.5805 18.1593 98.7122 17.9818 98.9538 17.3413Z" fill="#FFC1CD"/>
<path d="M91.6415 18.3263C92.7345 17.7681 93.3612 16.8241 93.0414 16.2177C92.7215 15.6113 91.5762 15.5722 90.4832 16.1304C89.3902 16.6885 88.7635 17.6326 89.0833 18.2389C89.4032 18.8453 90.5485 18.8844 91.6415 18.3263Z" fill="#FFC1CD"/>
<path d="M93.8168 17.2844C94.6178 17.2844 95.2672 16.6454 95.2672 15.8573C95.2672 15.0691 94.6178 14.4302 93.8168 14.4302C93.0157 14.4302 92.3663 15.0691 92.3663 15.8573C92.3663 16.6454 93.0157 17.2844 93.8168 17.2844Z" fill="#FFFFCD"/>
</g>
<g clip-path="url(#clip4_34_288)">
<path d="M30.4953 5.55605C30.9707 4.43837 30.8369 3.31849 30.1963 3.05473C29.5558 2.79097 28.6512 3.48321 28.1758 4.6009C27.7003 5.71858 27.8342 6.83845 28.4747 7.10221C29.1152 7.36597 30.0199 6.67373 30.4953 5.55605Z" fill="#FFC1CD"/>
<path d="M27.1835 7.17614C27.725 6.74851 27.5392 5.63585 26.7684 4.69093C25.9976 3.74601 24.9338 3.32666 24.3923 3.75428C23.8507 4.18191 24.0366 5.29457 24.8074 6.23949C25.5781 7.18441 26.642 7.60377 27.1835 7.17614Z" fill="#FFC1CD"/>
<path d="M28.8958 12.9783C29.5697 12.8139 29.876 11.7273 29.5797 10.5513C29.2835 9.37528 28.497 8.55515 27.823 8.7195C27.149 8.88386 26.8428 9.97045 27.1391 11.1465C27.4353 12.3225 28.2218 13.1427 28.8958 12.9783Z" fill="#FFC1CD"/>
<path d="M32.9538 9.34128C33.1954 8.70078 32.4553 7.83981 31.3008 7.41827C30.1463 6.99673 29.0146 7.17423 28.773 7.81474C28.5314 8.45525 29.2715 9.31622 30.426 9.73776C31.5805 10.1593 32.7122 9.98179 32.9538 9.34128Z" fill="#FFC1CD"/>
<path d="M25.6415 10.3263C26.7345 9.76813 27.3612 8.82409 27.0414 8.21771C26.7215 7.61133 25.5762 7.57223 24.4832 8.13037C23.3902 8.68852 22.7635 9.63256 23.0833 10.2389C23.4032 10.8453 24.5485 10.8844 25.6415 10.3263Z" fill="#FFC1CD"/>
<path d="M27.8168 9.28435C28.6178 9.28435 29.2672 8.64542 29.2672 7.85726C29.2672 7.0691 28.6178 6.43018 27.8168 6.43018C27.0157 6.43018 26.3663 7.0691 26.3663 7.85726C26.3663 8.64542 27.0157 9.28435 27.8168 9.28435Z" fill="#FFFFCD"/>
</g>
<g clip-path="url(#clip5_34_288)">
<path d="M52.9906 9.11209C53.9414 6.87673 53.6737 4.63698 52.3927 4.10946C51.1116 3.58195 49.3023 4.96643 48.3515 7.20179C47.4007 9.43715 47.6684 11.6769 48.9494 12.2044C50.2305 12.7319 52.0398 11.3475 52.9906 9.11209Z" fill="#FFC1CD"/>
<path d="M46.367 12.3523C47.45 11.497 47.0783 9.27169 45.5368 7.38185C43.9952 5.49201 41.8676 4.65331 40.7845 5.50856C39.7015 6.36381 40.0732 8.58915 41.6147 10.479C43.1563 12.3688 45.2839 13.2075 46.367 12.3523Z" fill="#FFC1CD"/>
<path d="M49.7917 23.9565C51.1396 23.6278 51.752 21.4546 51.1595 19.1025C50.5671 16.7504 48.994 15.1102 47.6461 15.4389C46.2982 15.7676 45.6857 17.9408 46.2782 20.2929C46.8707 22.6449 48.4437 24.2852 49.7917 23.9565Z" fill="#FFC1CD"/>
<path d="M57.9076 16.6827C58.3907 15.4017 56.9106 13.6797 54.6016 12.8367C52.2926 11.9936 50.0291 12.3486 49.546 13.6296C49.0628 14.9106 50.5429 16.6326 52.8519 17.4756C55.1609 18.3187 57.4244 17.9637 57.9076 16.6827Z" fill="#FFC1CD"/>
<path d="M43.283 18.6526C45.469 17.5363 46.7225 15.6482 46.0827 14.4354C45.443 13.2227 43.1523 13.1445 40.9663 14.2607C38.7804 15.377 37.5269 17.2651 38.1666 18.4779C38.8064 19.6907 41.0971 19.7689 43.283 18.6526Z" fill="#FFC1CD"/>
<path d="M47.6334 16.5687C49.2355 16.5687 50.5342 15.2908 50.5342 13.7145C50.5342 12.1382 49.2355 10.8604 47.6334 10.8604C46.0313 10.8604 44.7325 12.1382 44.7325 13.7145C44.7325 15.2908 46.0313 16.5687 47.6334 16.5687Z" fill="#FFFFCD"/>
</g>
<path d="M6 19V42.1923" stroke="#A9DED8" stroke-linecap="round"/>
<path d="M28 13V36.1923" stroke="#A9DED8" stroke-linecap="round"/>
<path d="M46 20V43.1923" stroke="#A9DED8" stroke-linecap="round"/>
<path d="M60 8V31.1923" stroke="#A9DED8" stroke-linecap="round"/>
<path d="M74 16V39.1923" stroke="#A9DED8" stroke-linecap="round"/>
<path d="M94 19V42.1923" stroke="#A9DED8" stroke-linecap="round"/>
<defs>
<clipPath id="clip0_34_288">
<rect width="15" height="15" fill="white" transform="translate(68 6)"/>
</clipPath>
<clipPath id="clip1_34_288">
<rect width="15" height="15" fill="white" transform="translate(0 8)"/>
</clipPath>
<clipPath id="clip2_34_288">
<rect width="10" height="10" fill="white" transform="translate(57)"/>
</clipPath>
<clipPath id="clip3_34_288">
<rect width="10" height="10" fill="white" transform="translate(89 11)"/>
</clipPath>
<clipPath id="clip4_34_288">
<rect width="10" height="10" fill="white" transform="translate(23 3)"/>
</clipPath>
<clipPath id="clip5_34_288">
<rect width="20" height="20" fill="white" transform="translate(38 4)"/>
</clipPath>
</defs>
</svg>
