<svg width="106" height="65" viewBox="0 0 106 65" fill="none" xmlns="http://www.w3.org/2000/svg">
<g clip-path="url(#clip0_34_289)">
<path d="M75.4915 28.6008C76.3472 26.589 76.1063 24.5732 74.9534 24.0985C73.8004 23.6237 72.172 24.8697 71.3163 26.8816C70.4606 28.8934 70.7015 30.9092 71.8544 31.3839C73.0074 31.8587 74.6358 30.6127 75.4915 28.6008Z" fill="#FFC1CD"/>
<path d="M69.5302 31.5171C70.505 30.7474 70.1704 28.7446 68.783 27.0437C67.3956 25.3429 65.4807 24.588 64.506 25.3578C63.5313 26.1275 63.8658 28.1303 65.2532 29.8311C66.6406 31.532 68.5555 32.2868 69.5302 31.5171Z" fill="#FFC1CD"/>
<path d="M72.6125 41.9609C73.8256 41.665 74.3768 39.7092 73.8436 37.5923C73.3103 35.4754 71.8946 33.9992 70.6815 34.295C69.4683 34.5909 68.9171 36.5467 69.4504 38.6636C69.9836 40.7805 71.3993 42.2567 72.6125 41.9609Z" fill="#FFC1CD"/>
<path d="M79.9168 35.4144C80.3516 34.2615 79.0195 32.7117 76.9414 31.953C74.8633 31.1942 72.8262 31.5137 72.3914 32.6666C71.9565 33.8195 73.2886 35.3693 75.3667 36.128C77.4448 36.8868 79.4819 36.5673 79.9168 35.4144Z" fill="#FFC1CD"/>
<path d="M66.7547 37.1874C68.722 36.1827 69.8502 34.4834 69.2744 33.3919C68.6986 32.3004 66.637 32.2301 64.6697 33.2347C62.7023 34.2394 61.5742 35.9387 62.1499 37.0301C62.7257 38.1216 64.7873 38.192 66.7547 37.1874Z" fill="#FFC1CD"/>
<path d="M70.6701 35.3118C72.112 35.3118 73.2808 34.1618 73.2808 32.7431C73.2808 31.3244 72.112 30.1743 70.6701 30.1743C69.2282 30.1743 68.0593 31.3244 68.0593 32.7431C68.0593 34.1618 69.2282 35.3118 70.6701 35.3118Z" fill="#FFFFCD"/>
</g>
<g clip-path="url(#clip1_34_289)">
<path d="M52.9812 10.2241C54.8829 5.75334 54.3475 1.27383 51.7854 0.218802C49.2233 -0.836228 45.6047 1.93274 43.703 6.40346C41.8014 10.8742 42.3368 15.3537 44.8989 16.4087C47.461 17.4637 51.0796 14.6948 52.9812 10.2241Z" fill="#FFC1CD"/>
<path d="M39.734 16.7047C41.9001 14.9942 41.1567 10.5435 38.0735 6.76383C34.9904 2.98415 30.7351 1.30674 28.569 3.01724C26.4029 4.72775 27.1463 9.17842 30.2294 12.9581C33.3126 16.7378 37.5679 18.4152 39.734 16.7047Z" fill="#FFC1CD"/>
<path d="M46.5832 39.9129C49.2791 39.2555 50.5039 34.9091 49.319 30.205C48.134 25.5009 44.988 22.2204 42.2921 22.8778C39.5962 23.5352 38.3714 27.8816 39.5563 32.5857C40.7413 37.2898 43.8873 40.5704 46.5832 39.9129Z" fill="#FFC1CD"/>
<path d="M62.8151 25.3653C63.7814 22.8032 60.8212 19.3594 56.2032 17.6732C51.5853 15.987 47.0583 16.6971 46.092 19.2591C45.1256 21.8211 48.0859 25.265 52.7039 26.9512C57.3218 28.6373 61.8488 27.9273 62.8151 25.3653Z" fill="#FFC1CD"/>
<path d="M33.566 29.3051C37.938 27.0725 40.4449 23.2964 39.1654 20.8708C37.886 18.4453 33.3046 18.2889 28.9327 20.5215C24.5607 22.7541 22.0538 26.5302 23.3333 28.9558C24.6128 31.3813 29.1941 31.5377 33.566 29.3051Z" fill="#FFC1CD"/>
<path d="M42.2669 25.1375C45.4711 25.1375 48.0686 22.5818 48.0686 19.4292C48.0686 16.2765 45.4711 13.7208 42.2669 13.7208C39.0627 13.7208 36.4652 16.2765 36.4652 19.4292C36.4652 22.5818 39.0627 25.1375 42.2669 25.1375Z" fill="#FFFFCD"/>
</g>
<g clip-path="url(#clip2_34_289)">
<path d="M14.9906 20.1121C15.9414 17.8767 15.6737 15.637 14.3927 15.1095C13.1116 14.5819 11.3023 15.9664 10.3515 18.2018C9.40068 20.4372 9.66838 22.6769 10.9494 23.2044C12.2305 23.7319 14.0398 22.3475 14.9906 20.1121Z" fill="#FFC1CD"/>
<path d="M8.36698 23.3523C9.45002 22.497 9.07832 20.2717 7.53677 18.3819C5.99521 16.492 3.86755 15.6533 2.78451 16.5086C1.70147 17.3638 2.07317 19.5891 3.61472 21.479C5.15628 23.3688 7.28394 24.2075 8.36698 23.3523Z" fill="#FFC1CD"/>
<path d="M11.7917 34.9565C13.1396 34.6278 13.752 32.4546 13.1595 30.1025C12.5671 27.7504 10.994 26.1102 9.64611 26.4389C8.29817 26.7676 7.68575 28.9408 8.27823 31.2929C8.87071 33.6449 10.4437 35.2852 11.7917 34.9565Z" fill="#FFC1CD"/>
<path d="M19.9076 27.6827C20.3907 26.4017 18.9106 24.6797 16.6016 23.8367C14.2926 22.9936 12.0291 23.3486 11.546 24.6296C11.0628 25.9106 12.5429 27.6326 14.8519 28.4756C17.1609 29.3187 19.4244 28.9637 19.9076 27.6827Z" fill="#FFC1CD"/>
<path d="M5.28302 29.6526C7.46899 28.5363 8.72245 26.6482 8.08272 25.4354C7.44298 24.2227 5.1523 24.1445 2.96634 25.2607C0.780375 26.377 -0.473091 28.2651 0.166644 29.4779C0.806379 30.6907 3.09706 30.7689 5.28302 29.6526Z" fill="#FFC1CD"/>
<path d="M9.63339 27.5687C11.2355 27.5687 12.5342 26.2908 12.5342 24.7145C12.5342 23.1382 11.2355 21.8604 9.63339 21.8604C8.0313 21.8604 6.73254 23.1382 6.73254 24.7145C6.73254 26.2908 8.0313 27.5687 9.63339 27.5687Z" fill="#FFFFCD"/>
</g>
<g clip-path="url(#clip3_34_289)">
<path d="M29.4915 34.6008C30.3473 32.589 30.1063 30.5732 28.9534 30.0985C27.8004 29.6237 26.172 30.8697 25.3163 32.8816C24.4606 34.8934 24.7015 36.9092 25.8544 37.3839C27.0074 37.8587 28.6358 36.6127 29.4915 34.6008Z" fill="#FFC1CD"/>
<path d="M23.5302 37.5171C24.505 36.7474 24.1704 34.7446 22.783 33.0437C21.3956 31.3429 19.4807 30.588 18.506 31.3578C17.5313 32.1275 17.8658 34.1303 19.2532 35.8311C20.6406 37.532 22.5555 38.2868 23.5302 37.5171Z" fill="#FFC1CD"/>
<path d="M26.6125 47.9609C27.8256 47.665 28.3768 45.7092 27.8436 43.5923C27.3103 41.4754 25.8946 39.9992 24.6815 40.295C23.4683 40.5909 22.9171 42.5467 23.4504 44.6636C23.9836 46.7805 25.3993 48.2567 26.6125 47.9609Z" fill="#FFC1CD"/>
<path d="M33.9168 41.4144C34.3516 40.2615 33.0195 38.7117 30.9414 37.953C28.8633 37.1942 26.8262 37.5137 26.3914 38.6666C25.9565 39.8195 27.2886 41.3693 29.3667 42.128C31.4448 42.8868 33.4819 42.5673 33.9168 41.4144Z" fill="#FFC1CD"/>
<path d="M20.7547 43.1874C22.722 42.1827 23.8502 40.4834 23.2744 39.3919C22.6986 38.3004 20.637 38.2301 18.6697 39.2347C16.7023 40.2394 15.5742 41.9387 16.1499 43.0301C16.7257 44.1216 18.7873 44.192 20.7547 43.1874Z" fill="#FFC1CD"/>
<path d="M24.6701 41.3118C26.112 41.3118 27.2808 40.1618 27.2808 38.7431C27.2808 37.3244 26.112 36.1743 24.6701 36.1743C23.2282 36.1743 22.0593 37.3244 22.0593 38.7431C22.0593 40.1618 23.2282 41.3118 24.6701 41.3118Z" fill="#FFFFCD"/>
</g>
<g clip-path="url(#clip4_34_289)">
<path d="M99.2374 17.9012C100.521 14.8835 100.16 11.8598 98.4302 11.1476C96.7007 10.4355 94.2582 12.3045 92.9746 15.3223C91.691 18.34 92.0524 21.3637 93.7818 22.0758C95.5112 22.788 97.9538 20.9189 99.2374 17.9012Z" fill="#FFC1CD"/>
<path d="M90.2954 22.2757C91.7575 21.1211 91.2557 18.1169 89.1746 15.5656C87.0935 13.0143 84.2212 11.882 82.7591 13.0366C81.297 14.1912 81.7988 17.1954 83.8799 19.7467C85.961 22.298 88.8333 23.4302 90.2954 22.2757Z" fill="#FFC1CD"/>
<path d="M94.9187 37.9412C96.7384 37.4975 97.5652 34.5637 96.7653 31.3884C95.9655 28.2131 93.8419 25.9987 92.0222 26.4425C90.2025 26.8862 89.3757 29.8201 90.1756 32.9953C90.9754 36.1706 93.099 38.385 94.9187 37.9412Z" fill="#FFC1CD"/>
<path d="M105.875 28.1216C106.527 26.3922 104.529 24.0676 101.412 22.9294C98.295 21.7913 95.2393 22.2705 94.587 23.9999C93.9348 25.7293 95.9329 28.0539 99.0501 29.1921C102.167 30.3302 105.223 29.851 105.875 28.1216Z" fill="#FFC1CD"/>
<path d="M86.1321 30.781C89.0832 29.274 90.7754 26.7251 89.9117 25.0878C89.0481 23.4506 85.9557 23.345 83.0046 24.852C80.0536 26.359 78.3614 28.9079 79.225 30.5452C80.0887 32.1824 83.1811 32.288 86.1321 30.781Z" fill="#FFC1CD"/>
<path d="M92.0051 27.9679C94.168 27.9679 95.9213 26.2428 95.9213 24.1147C95.9213 21.9867 94.168 20.2616 92.0051 20.2616C89.8423 20.2616 88.089 21.9867 88.089 24.1147C88.089 26.2428 89.8423 27.9679 92.0051 27.9679Z" fill="#FFFFCD"/>
</g>
<path d="M44 40V63.1923" stroke="#A9DED8" stroke-linecap="round"/>
<path d="M70 37V60.1923" stroke="#A9DED8" stroke-linecap="round"/>
<path d="M89 30V53.1923" stroke="#A9DED8" stroke-linecap="round"/>
<path d="M11 34V57.1923" stroke="#A9DED8" stroke-linecap="round"/>
<path d="M23 41V64.1923" stroke="#A9DED8" stroke-linecap="round"/>
<defs>
<clipPath id="clip0_34_289">
<rect width="18" height="18" fill="white" transform="translate(62 24)"/>
</clipPath>
<clipPath id="clip1_34_289">
<rect width="40" height="40" fill="white" transform="translate(23)"/>
</clipPath>
<clipPath id="clip2_34_289">
<rect width="20" height="20" fill="white" transform="translate(0 15)"/>
</clipPath>
<clipPath id="clip3_34_289">
<rect width="18" height="18" fill="white" transform="translate(16 30)"/>
</clipPath>
<clipPath id="clip4_34_289">
<rect width="27" height="27" fill="white" transform="translate(79 11)"/>
</clipPath>
</defs>
</svg>
