<svg width="114" height="40" viewBox="0 0 114 40" fill="none" xmlns="http://www.w3.org/2000/svg">
<path fill-rule="evenodd" clip-rule="evenodd" d="M76.9744 9.75815C76.9744 4.36887 64.4326 0 48.9616 0C33.4905 0 20.9487 4.36887 20.9487 9.75815V9.76062C9.33502 9.87851 0 14.2011 0 19.5163C0 24.9056 9.59718 29.2745 21.4359 29.2745C23.4699 29.2745 25.4378 29.1455 27.3021 28.9045C27.2888 29.0273 27.282 29.1506 27.282 29.2745C27.282 34.6637 40.0419 39.0326 55.782 39.0326C63.239 39.0326 70.0271 38.052 75.1064 36.4469C78.9268 38.052 84.0323 39.0326 89.641 39.0326C101.48 39.0326 111.077 34.6637 111.077 29.2745C111.077 27.595 110.145 26.0147 108.504 24.6348C111.989 23.1468 114 21.3934 114 19.5163C114 14.127 97.4231 9.75815 76.9744 9.75815Z" fill="#F8EFEF"/>
</svg>
