<svg width="240" height="100" viewBox="0 0 240 100" fill="none" xmlns="http://www.w3.org/2000/svg">
<path fill-rule="evenodd" clip-rule="evenodd" d="M162.051 25C162.051 11.1929 135.648 0 103.077 0C70.5063 0 44.1026 11.1929 44.1026 25V25.0063C19.6526 25.3084 0 36.3828 0 50C0 63.8071 20.2046 75 45.1282 75C49.4104 75 53.5532 74.6696 57.4782 74.0523C57.4501 74.3668 57.4359 74.6827 57.4359 75C57.4359 88.8071 84.2988 100 117.436 100C133.135 100 147.426 97.4878 158.119 93.3756C166.162 97.4878 176.91 100 188.718 100C213.642 100 233.846 88.8071 233.846 75C233.846 70.6974 231.884 66.6487 228.429 63.1134C235.766 59.3011 240 54.8091 240 50C240 36.1929 205.101 25 162.051 25Z" fill="#F8EFEF"/>
</svg>
