<svg width="184" height="63" viewBox="0 0 184 63" fill="none" xmlns="http://www.w3.org/2000/svg">
<path fill-rule="evenodd" clip-rule="evenodd" d="M124.239 15.75C124.239 7.05152 103.996 0 79.0256 0C54.0548 0 33.812 7.05152 33.812 15.75V15.754C15.067 15.9443 0 22.9212 0 31.5C0 40.1985 15.4902 47.25 34.5983 47.25C37.8813 47.25 41.0575 47.0418 44.0666 46.653C44.0451 46.8511 44.0342 47.0501 44.0342 47.25C44.0342 55.9485 64.6291 63 90.0342 63C102.07 63 113.026 61.4173 121.224 58.8266C127.391 61.4173 135.631 63 144.684 63C163.792 63 179.282 55.9485 179.282 47.25C179.282 44.5394 177.778 41.9887 175.129 39.7614C180.754 37.3597 184 34.5297 184 31.5C184 22.8015 157.244 15.75 124.239 15.75Z" fill="#F8EFEF"/>
</svg>
