<svg width="27" height="27" viewBox="0 0 27 27" fill="none" xmlns="http://www.w3.org/2000/svg">
<g clip-path="url(#clip0_7_132)">
<path d="M20.2374 6.90119C21.521 3.88345 21.1596 0.859784 19.4302 0.147639C17.7007 -0.564506 15.2582 1.30455 13.9746 4.32228C12.691 7.34002 13.0524 10.3637 14.7818 11.0758C16.5112 11.788 18.9538 9.91893 20.2374 6.90119Z" fill="#FFC1CD"/>
<path d="M11.2954 11.2757C12.7575 10.1211 12.2557 7.11686 10.1746 4.56558C8.09352 2.01429 5.22118 0.882043 3.75907 2.03663C2.29697 3.19122 2.79876 6.19542 4.87986 8.74671C6.96097 11.298 9.8333 12.4302 11.2954 11.2757Z" fill="#FFC1CD"/>
<path d="M15.9187 26.9412C17.7384 26.4975 18.5652 23.5637 17.7653 20.3884C16.9655 17.2131 14.8419 14.9987 13.0222 15.4425C11.2025 15.8862 10.3757 18.8201 11.1756 21.9953C11.9754 25.1706 14.099 27.385 15.9187 26.9412Z" fill="#FFC1CD"/>
<path d="M26.8752 17.1216C27.5274 15.3922 25.5293 13.0676 22.4121 11.9294C19.295 10.7913 16.2393 11.2705 15.587 12.9999C14.9348 14.7293 16.9329 17.0539 20.0501 18.1921C23.1672 19.3302 26.2229 18.851 26.8752 17.1216Z" fill="#FFC1CD"/>
<path d="M7.13207 19.781C10.0831 18.274 11.7753 15.7251 10.9117 14.0878C10.048 12.4506 6.9556 12.345 4.00455 13.852C1.05349 15.359 -0.638685 17.9079 0.224957 19.5452C1.0886 21.1824 4.18102 21.288 7.13207 19.781Z" fill="#FFC1CD"/>
<path d="M13.0051 16.9679C15.168 16.9679 16.9213 15.2428 16.9213 13.1147C16.9213 10.9867 15.168 9.2616 13.0051 9.2616C10.8423 9.2616 9.08899 10.9867 9.08899 13.1147C9.08899 15.2428 10.8423 16.9679 13.0051 16.9679Z" fill="#FFFFCD"/>
</g>
<defs>
<clipPath id="clip0_7_132">
<rect width="27" height="27" fill="white"/>
</clipPath>
</defs>
</svg>
