<svg width="150" height="90" viewBox="0 0 150 90" fill="none" xmlns="http://www.w3.org/2000/svg">
<g clip-path="url(#clip0_19_24)">
<path d="M109.578 76.7859C108.971 70.8493 110.476 64.2991 115.007 60.371C116.611 58.9759 118.526 57.9617 120.076 56.5073C122.262 54.3753 124.04 51.8602 125.322 49.0864C122.786 57.4967 113.729 60.5343 111.009 68.6527C110.194 71.1042 110.182 73.7531 110.975 76.2121C112.974 82.3367 117.653 76.5584 121.196 75.1088C123.896 74.0056 126.956 74.6735 129.508 72.9172C131.976 71.2302 133.219 68.6131 134.399 65.9565C135.223 64.1013 135.134 60.0544 134.142 58.2932C133.747 57.5956 133.155 56.9673 133.012 56.1758C132.947 55.5858 132.99 54.9888 133.14 54.4146C133.523 52.503 133.455 50.5282 132.941 48.6478C132.427 46.7675 131.481 45.0337 130.179 43.5851C131.339 38.5043 129.083 34.3387 125.54 30.9548C122.366 27.9222 118.354 24.0287 119.123 19.2051C119.38 17.5676 120.14 16.1082 120.668 14.5745C119.4 14.0798 117.761 14.8466 116.656 15.564C115.55 16.2813 114.603 18.3592 113.349 18.4284C112.224 18.4878 110.358 16.2467 109.312 15.7173C108.265 15.188 105.625 15.2226 104.87 14.5943C105.818 15.3149 106.702 16.1178 107.51 16.9937C104.292 16.1527 101.203 15.2919 97.8169 15.2276C94.6433 15.1732 93.6711 16.0686 92.1756 13.5059C91.6031 12.5165 91.0207 11.7249 89.8707 11.3638C88.3012 10.8691 86.5985 11.2451 85.0191 11.6952C82.1907 12.5016 79.4285 13.5254 76.7571 14.7576C76.3908 14.9658 75.9787 15.0796 75.5577 15.089C73.9784 14.9753 73.8945 12.3038 72.399 11.7843C71.2836 11.3935 68.5592 12.9667 67.7103 13.6296C64.2061 16.3753 61.2645 19.9918 59.9319 24.2464C58.9224 27.3756 58.9432 30.7473 59.9911 33.8638C60.3959 35.0016 61.7531 36.4017 61.8617 37.5544C61.9999 39.0732 60.5242 40.6464 59.8431 41.9179C58.5302 44.3915 58.1206 47.2955 61.299 47.1422C68.2532 46.8107 71.2342 41.997 74.6002 36.753C77.147 32.7952 80.6759 29.2925 81.8702 24.7361C82.4329 22.5841 83.7457 20.2836 85.7792 19.3931C84.1998 25.1913 80.745 30.7371 77.2605 35.6299C75.2271 38.4795 73.5095 41.532 71.5945 44.4558C70.1484 46.6672 66.9157 48.933 65.973 51.283C65.78 51.8317 65.701 52.4143 65.741 52.9947C65.8251 56.2677 67.0631 59.4051 69.2353 61.8503C69.82 62.5276 70.5 63.1159 71.254 63.5966C73.3762 64.9175 75.2863 64.3437 77.5171 64.502C77.5813 64.8433 77.4036 64.9967 77.1322 65.2243C77.3148 66.8519 78.5585 67.6979 80.1527 68.0887C81.7469 68.4796 83.4003 68.2223 85.029 68.1431C86.6577 68.064 88.4049 68.1728 89.7375 69.1326C90.6466 69.8409 91.2459 70.8754 91.4088 72.018C91.5718 73.1606 91.2858 74.322 90.611 75.2572C90.0336 76.0191 89.16 77.0234 89.7769 77.7309C90.0146 77.9616 90.3152 78.1166 90.6406 78.1761C96.6817 79.8582 104.031 79.7098 109.578 76.7859Z" fill="#F2DAB7" stroke="#231F20" stroke-width="0.25" stroke-miterlimit="10"/>
<path d="M65.1635 65.3628L83.1337 67.8364C85.0635 68.1036 87.0278 68.3806 88.775 69.2315C90.5222 70.0824 92.062 71.6062 92.4174 73.5257C92.5734 74.3931 92.482 75.287 92.1536 76.1045C91.8251 76.9221 91.273 77.6301 90.5609 78.147C89.8487 78.6639 89.0054 78.9687 88.128 79.0264C87.2506 79.0841 86.3749 78.8922 85.6015 78.4729C84.9781 79.1793 84.2016 79.7329 83.3314 80.0914C82.4613 80.4499 81.5207 80.6037 80.5821 80.5409C78.8398 80.4123 77.2506 79.5514 75.5577 79.121C72.7691 78.4284 69.8473 78.9776 66.9946 79.2596C64.1419 79.5415 61.0325 79.497 58.6881 77.8397C57.914 78.0426 57.113 78.1227 56.3141 78.0772C56.4386 78.4772 56.5148 78.8908 56.5412 79.309C56.5167 79.9263 56.334 80.5269 56.0107 81.0529C55.6874 81.5789 55.2344 82.0125 54.6953 82.312C53.6135 82.903 52.4261 83.2745 51.201 83.4053C48.5111 83.8357 45.5399 83.6379 42.9587 84.2266C43.699 84.0683 46.4382 87.8331 46.4135 88.4762C46.3148 90.9499 40.3922 88.1695 38.8178 87.655C30.5804 84.9736 21.7162 85.216 13.1531 83.9099C6.31744 82.8661 1.55468 75.94 0.908126 69.3453C0.611996 66.3473 1.10554 63.3295 1.72248 60.3809C3.02546 54.1771 4.73808 47.063 9.88088 42.8677C18.1182 36.1445 29.4255 33.8044 39.7999 34.4574C47.2674 34.9175 54.6065 36.6689 61.8715 38.4152C61.5606 38.3361 60.3218 44.9307 60.3909 45.5937C61.2151 51.7777 71.4415 41.4924 73.2232 40.1913C72.3397 42.5907 71.4069 45.0346 69.8029 47.0432C68.3765 48.8291 67.4092 49.9274 67.0982 52.3664C66.8084 54.7205 67.1285 57.1096 68.0275 59.3037C68.9265 61.4977 70.3743 63.4226 72.2312 64.8928" fill="#F2DAB7"/>
<path d="M65.1635 65.3628L83.1337 67.8364C85.0635 68.1036 87.0278 68.3806 88.775 69.2315C90.5222 70.0824 92.062 71.6062 92.4174 73.5257C92.5734 74.3931 92.482 75.287 92.1536 76.1045C91.8251 76.9221 91.273 77.6301 90.5609 78.147C89.8487 78.6639 89.0054 78.9687 88.128 79.0264C87.2506 79.0841 86.3749 78.8922 85.6015 78.4729C84.9781 79.1793 84.2016 79.7329 83.3314 80.0914C82.4613 80.4499 81.5207 80.6037 80.5821 80.5409C78.8398 80.4123 77.2506 79.5514 75.5577 79.121C72.7691 78.4284 69.8473 78.9776 66.9946 79.2596C64.1419 79.5415 61.0325 79.497 58.6881 77.8397C57.914 78.0426 57.113 78.1227 56.3141 78.0772C56.4386 78.4772 56.5148 78.8908 56.5412 79.309C56.5167 79.9263 56.334 80.5269 56.0107 81.0529C55.6874 81.5789 55.2344 82.0125 54.6953 82.312C53.6135 82.903 52.4261 83.2745 51.201 83.4053C48.5111 83.8357 45.5399 83.6379 42.9587 84.2266C43.699 84.0683 46.4382 87.8331 46.4135 88.4762C46.3148 90.9499 40.3922 88.1695 38.8178 87.655C30.5804 84.9736 21.7162 85.216 13.1531 83.9099C6.31744 82.8661 1.55468 75.94 0.908126 69.3453C0.611996 66.3473 1.10554 63.3295 1.72248 60.3809C3.02546 54.1771 4.73808 47.063 9.88088 42.8677C18.1182 36.1445 29.4255 33.8044 39.7999 34.4574C47.2674 34.9175 54.6065 36.6689 61.8715 38.4152C61.5606 38.3361 60.3218 44.9307 60.3909 45.5937C61.2151 51.7777 71.4415 41.4924 73.2232 40.1913C72.3397 42.5907 71.4069 45.0346 69.8029 47.0432C68.3765 48.8291 67.4092 49.9274 67.0982 52.3664C66.8084 54.7205 67.1285 57.1096 68.0275 59.3037C68.9265 61.4977 70.3743 63.4226 72.2312 64.8928" stroke="#231F20" stroke-width="0.25" stroke-miterlimit="10"/>
<path d="M141.003 74.7922C138.954 75.8806 136.852 76.9838 134.557 77.2906C132.754 77.4463 130.939 77.3514 129.162 77.0086C126.749 76.6573 123.96 77.2856 121.66 76.7019C123.59 74.5746 126.67 73.4862 129.182 72.1999C130.811 71.3688 132.874 70.4634 134.014 68.9743C134.621 68.1877 134.507 66.9954 134.922 66.4215C135.648 65.3727 137.222 65.0017 138.53 64.7494C138.976 64.6472 139.437 64.6238 139.892 64.6801C141.082 64.878 141.925 65.9664 142.389 67.0845C143.302 69.3206 143.465 73.4862 141.003 74.7922Z" fill="#F2DAB7" stroke="#231F20" stroke-width="0.25" stroke-miterlimit="10"/>
<path d="M82.2651 35.0066C82.8488 34.8641 83.4602 34.8832 84.0339 35.0618C84.6076 35.2404 85.1221 35.5719 85.5226 36.0208C86.3081 36.9384 86.7969 38.0737 86.9243 39.2761C87.1207 40.7245 87.0019 42.1984 86.5759 43.5965C86.1499 44.9945 85.4268 46.2835 84.4565 47.3747C85.4683 46.2467 78.8251 42.4027 78.45 41.7447C77.1668 39.4195 80.054 35.6794 82.2651 35.0066Z" fill="#DBB7A1"/>
<path d="M108.867 59.2728C107.022 57.3186 102.876 54.3255 100.072 55.033C101.829 56.3242 105.546 56.4331 107.747 57.5066C108.867 58.0508 109.721 58.6296 109.879 59.8615L111.715 55.3694C112.12 54.3799 112.53 53.3015 112.308 52.2526C112.051 51.3024 111.444 50.4854 110.61 49.967C110.159 49.6213 109.641 49.3739 109.09 49.241C108.538 49.1081 107.965 49.0925 107.407 49.1953C106.884 49.3549 106.385 49.5863 105.926 49.8829C103.7 51.2038 101.306 52.7177 100.443 55.1616" fill="#DBB7A1"/>
<path d="M79.8071 52.5693C79.3481 52.2823 78.8842 52.9255 78.7213 53.44C78.2278 55.1022 77.7046 56.8189 77.8477 58.5554C77.9909 60.2919 78.9039 62.0679 80.503 62.7457C81.7567 63.28 83.188 63.0673 84.5304 62.8447L88.2518 62.2263C88.6939 62.1878 89.1196 62.0399 89.4906 61.7959C89.7502 61.5524 89.9319 61.2373 90.0127 60.8903C90.0935 60.5433 90.0699 60.1801 89.9447 59.8466C89.679 59.1836 89.2732 58.5861 88.7552 58.0953C87.1163 56.2335 85.206 54.6307 83.0892 53.341C81.7221 52.5594 79.8071 52.0597 78.7312 53.2124C77.6553 54.3651 78.3314 56.5567 77.4628 57.9865" fill="#917A6C"/>
<path d="M88.4295 30.4799C88.7355 30.2177 88.3752 29.7378 88.0198 29.5498C87.0954 29.0903 86.0489 28.9385 85.0325 29.1164C84.0161 29.2944 83.0829 29.7928 82.3687 30.5392L87.2351 29.9951C87.6793 29.9456 88.2814 29.9951 88.3505 30.4551" fill="#6F5C51"/>
<path d="M114.065 44.5844C113.986 44.6834 113.842 44.4855 113.936 44.3964C114.03 44.3074 114.173 44.342 114.292 44.3964C115.231 44.808 115.982 45.5577 116.397 46.4974C116.812 47.4371 116.86 48.4986 116.532 49.4723C116.25 48.1828 115.749 46.9512 115.052 45.8311C114.721 45.3018 114.065 44.7477 113.571 45.1237" fill="#666766"/>
<path d="M71.4761 73.9858C72.7692 73.308 74.3091 73.3823 75.77 73.4911C77.741 73.5292 79.7008 73.7998 81.6087 74.2975C83.5356 74.8126 85.2179 75.9958 86.3566 77.6369" stroke="#231F20" stroke-width="0.25" stroke-miterlimit="10"/>
<path d="M87.8027 73.3773C88.5936 73.6439 89.3086 74.0979 89.8869 74.7008C90.4652 75.3038 90.8897 76.0377 91.1243 76.8404" stroke="#231F20" stroke-width="0.25" stroke-miterlimit="10"/>
<path d="M136.886 73.4763C137.672 73.1396 138.523 72.9826 139.376 73.0169C140.23 73.0511 141.066 73.2756 141.822 73.6741" stroke="#231F20" stroke-width="0.25" stroke-miterlimit="10"/>
<path d="M136.768 70.2705C137.738 69.8483 138.791 69.6505 139.848 69.6916C140.904 69.7327 141.938 70.0117 142.873 70.5079" stroke="#231F20" stroke-width="0.25" stroke-miterlimit="10"/>
<path d="M43.2745 83.91C37.6529 81.4363 31.2812 81.7579 25.1858 81.0851C19.0905 80.4123 12.467 78.2256 9.57977 72.7836C7.0824 68.0937 8.09911 62.2708 10.2263 57.3928" stroke="#231F20" stroke-width="0.25" stroke-miterlimit="10"/>
<path d="M100.433 55.0033C102.092 55.1551 103.731 55.4869 105.319 55.9927C106.919 56.5026 108.313 57.5136 109.297 58.877" stroke="#231F20" stroke-width="0.25" stroke-miterlimit="10"/>
<path d="M85.488 47.2658C85.8433 47.0086 85.488 46.4644 85.1178 46.217C83.1556 44.8577 80.9897 43.8206 78.7017 43.1448" stroke="#231F20" stroke-width="0.25" stroke-miterlimit="10"/>
<path d="M139.932 17.6319C141.355 17.0836 142.923 17.0417 144.374 17.5132C143.656 19.239 142.674 20.8415 141.462 22.2625L145.41 22.4357" stroke="#231F20" stroke-width="2" stroke-miterlimit="10"/>
<path d="M134.448 25.879L137.474 25.6415C137.634 25.6087 137.802 25.6369 137.943 25.7206C138.18 25.9136 138.046 26.2945 137.888 26.5567C136.914 28.1713 135.725 29.6459 134.354 30.94C135.638 31.1509 136.943 31.199 138.239 31.0834" stroke="#231F20" stroke-width="2" stroke-miterlimit="10"/>
<path d="M146.313 7.17844L148.781 7.39117C148.99 7.38357 149.195 7.45209 149.358 7.58411C149.679 7.91558 149.319 8.44988 148.973 8.7566L144.645 12.6253L149.284 13.1844" stroke="#231F20" stroke-width="2" stroke-miterlimit="10"/>
</g>
<defs>
<clipPath id="clip0_19_24">
<rect width="150" height="90" fill="white"/>
</clipPath>
</defs>
</svg>
